<svg 
 xmlns="http://www.w3.org/2000/svg"
 xmlns:xlink="http://www.w3.org/1999/xlink"
 width="105px" height="40px">
<path fill-rule="evenodd"  fill="rgb(0, 124, 162)"
 d="M103.837,27.171 C103.194,27.170 102.673,26.657 102.673,26.023 L102.674,13.975 L102.674,13.974 C102.674,13.340 103.195,12.828 103.835,12.828 C104.479,12.828 104.999,13.339 104.998,13.973 L104.999,26.023 C104.999,26.657 104.479,27.171 103.837,27.171 ZM98.026,27.171 L95.122,27.170 C93.515,27.171 92.216,25.886 92.217,24.301 L92.216,16.845 C92.217,16.211 92.735,15.697 93.379,15.697 C94.020,15.697 94.540,16.210 94.539,16.845 L94.539,24.302 C94.540,24.620 94.800,24.875 95.121,24.875 L98.026,24.875 C98.347,24.875 98.608,24.620 98.608,24.301 L98.608,16.844 C98.607,16.210 99.127,15.697 99.769,15.697 C100.412,15.697 100.932,16.210 100.933,16.844 L100.932,24.301 C100.933,25.886 99.630,27.170 98.026,27.171 ZM88.731,24.875 L89.892,24.876 C90.533,24.875 91.054,25.389 91.053,26.023 C91.053,26.658 90.532,27.171 89.891,27.171 L88.731,27.170 C87.126,27.170 85.824,25.887 85.826,24.301 L85.825,17.991 L85.243,17.991 C84.603,17.991 84.081,17.476 84.081,16.844 C84.081,16.210 84.602,15.697 85.241,15.697 L85.826,15.697 L85.826,13.976 C85.826,13.976 85.826,13.976 85.824,13.974 C85.825,13.340 86.345,12.828 86.987,12.827 C87.628,12.828 88.149,13.341 88.148,13.974 L88.150,15.697 L89.893,15.697 C90.533,15.696 91.053,16.210 91.053,16.845 C91.054,17.476 90.532,17.991 89.892,17.990 L88.150,17.991 L88.150,24.301 C88.148,24.620 88.408,24.875 88.731,24.875 ZM82.337,27.170 C81.697,27.171 81.176,26.658 81.176,26.023 L81.176,18.564 C81.176,18.247 80.916,17.990 80.595,17.990 L76.528,17.991 L76.528,26.023 C76.528,26.658 76.007,27.170 75.366,27.171 C74.724,27.171 74.204,26.658 74.204,26.023 L74.204,16.844 C74.204,16.210 74.725,15.697 75.366,15.697 L80.595,15.697 C82.199,15.697 83.500,16.981 83.500,18.564 L83.501,26.023 C83.500,26.657 82.980,27.171 82.337,27.170 ZM72.481,32.155 L72.481,33.170 C72.481,33.287 72.413,33.360 72.302,33.360 C72.193,33.360 72.124,33.287 72.124,33.170 L72.124,31.364 C72.124,31.247 72.193,31.175 72.302,31.175 C72.413,31.175 72.481,31.247 72.481,31.364 L72.481,31.544 L72.490,31.544 C72.571,31.380 72.770,31.175 72.977,31.175 C73.104,31.175 73.177,31.256 73.177,31.355 C73.177,31.455 73.104,31.520 72.953,31.548 C72.742,31.585 72.481,31.741 72.481,32.155 ZM69.554,27.172 L66.650,27.170 C65.046,27.171 63.745,25.887 63.745,24.301 L63.745,22.580 C63.744,20.997 65.046,19.711 66.651,19.711 L70.137,19.711 L70.136,18.564 C70.136,18.247 69.877,17.991 69.555,17.990 L65.489,17.990 C64.846,17.991 64.326,17.475 64.327,16.844 C64.328,16.210 64.845,15.697 65.489,15.697 L69.554,15.696 C71.161,15.697 72.460,16.981 72.460,18.564 L72.460,24.301 C72.461,25.886 71.161,27.171 69.554,27.172 ZM66.651,22.007 C66.330,22.008 66.069,22.264 66.070,22.580 L66.069,24.301 C66.068,24.620 66.329,24.875 66.651,24.875 L69.555,24.875 C69.877,24.876 70.136,24.620 70.136,24.301 L70.137,22.007 L66.651,22.007 ZM64.365,31.986 L64.365,33.170 C64.365,33.287 64.296,33.360 64.186,33.360 C64.076,33.360 64.007,33.287 64.007,33.170 L64.007,32.006 C64.007,31.632 63.743,31.479 63.507,31.479 C63.271,31.479 63.007,31.632 63.007,32.006 L63.007,33.170 C63.007,33.287 62.938,33.360 62.828,33.360 C62.718,33.360 62.649,33.287 62.649,33.170 L62.649,31.364 C62.649,31.247 62.718,31.175 62.828,31.175 C62.938,31.175 63.007,31.247 63.007,31.364 L63.007,31.448 L63.015,31.455 C63.174,31.256 63.397,31.175 63.613,31.175 C63.946,31.175 64.365,31.384 64.365,31.986 ZM62.001,17.991 L60.841,17.990 C60.518,17.991 60.259,18.247 60.259,18.564 L60.259,26.023 C60.258,26.657 59.738,27.171 59.097,27.170 C58.455,27.171 57.933,26.658 57.933,26.025 L57.934,18.564 C57.934,16.981 59.237,15.695 60.840,15.697 L62.002,15.697 C62.644,15.697 63.163,16.210 63.164,16.844 C63.164,17.476 62.644,17.991 62.001,17.991 ZM58.257,31.536 C58.416,31.311 58.607,31.175 58.920,31.175 C59.254,31.175 59.673,31.384 59.673,31.986 L59.673,33.170 C59.673,33.287 59.604,33.360 59.494,33.360 C59.384,33.360 59.315,33.287 59.315,33.170 L59.315,31.973 C59.315,31.669 59.144,31.479 58.851,31.479 C58.562,31.479 58.391,31.669 58.391,31.973 L58.391,33.170 C58.391,33.287 58.322,33.360 58.212,33.360 C58.103,33.360 58.034,33.287 58.034,33.170 L58.034,31.973 C58.034,31.669 57.863,31.479 57.570,31.479 C57.281,31.479 57.110,31.669 57.110,31.973 L57.110,33.170 C57.110,33.287 57.041,33.360 56.932,33.360 C56.822,33.360 56.753,33.287 56.753,33.170 L56.753,31.364 C56.753,31.247 56.822,31.175 56.932,31.175 C57.041,31.175 57.110,31.247 57.110,31.364 L57.110,31.428 L57.119,31.435 C57.204,31.327 57.338,31.175 57.664,31.175 C57.875,31.175 58.095,31.263 58.257,31.536 ZM53.286,27.171 L50.382,27.170 C48.776,27.171 47.476,25.886 47.476,24.301 L47.476,22.580 C47.476,20.997 48.777,19.711 50.382,19.711 L53.868,19.711 L53.868,18.564 C53.868,18.247 53.609,17.991 53.287,17.991 L49.219,17.991 C48.577,17.991 48.055,17.477 48.057,16.845 C48.057,16.211 48.576,15.697 49.220,15.697 L53.286,15.697 C54.891,15.696 56.191,16.981 56.191,18.564 L56.190,24.302 C56.191,25.887 54.891,27.171 53.286,27.171 ZM53.868,22.007 L50.382,22.007 C50.062,22.007 49.800,22.264 49.799,22.580 L49.799,24.303 C49.799,24.620 50.060,24.875 50.382,24.875 L53.286,24.875 C53.607,24.875 53.868,24.618 53.868,24.301 L53.868,22.007 ZM47.628,33.170 C47.628,33.287 47.559,33.360 47.449,33.360 C47.339,33.360 47.270,33.287 47.270,33.170 L47.270,32.006 C47.270,31.632 47.006,31.479 46.770,31.479 C46.534,31.479 46.269,31.632 46.269,32.006 L46.269,33.170 C46.269,33.287 46.200,33.360 46.091,33.360 C45.981,33.360 45.912,33.287 45.912,33.170 L45.912,31.364 C45.912,31.247 45.981,31.175 46.091,31.175 C46.200,31.175 46.269,31.247 46.269,31.364 L46.269,31.448 L46.278,31.455 C46.436,31.256 46.660,31.175 46.875,31.175 C47.209,31.175 47.628,31.384 47.628,31.986 L47.628,33.170 ZM45.732,17.991 L43.989,17.990 L43.989,24.301 C43.989,24.620 44.250,24.875 44.570,24.875 L45.732,24.876 C46.376,24.875 46.894,25.389 46.894,26.025 C46.894,26.657 46.375,27.170 45.732,27.171 L44.570,27.171 C42.966,27.170 41.665,25.886 41.665,24.301 L41.664,17.991 L41.085,17.991 C40.443,17.991 39.923,17.476 39.922,16.845 C39.922,16.210 40.444,15.696 41.084,15.696 L41.665,15.695 L41.665,13.976 L41.665,13.975 C41.666,13.341 42.187,12.827 42.828,12.827 C43.470,12.828 43.990,13.341 43.989,13.975 L43.989,15.696 L45.732,15.697 C46.375,15.697 46.895,16.210 46.895,16.844 C46.895,17.476 46.374,17.991 45.732,17.991 ZM34.163,24.659 C36.058,25.738 36.710,28.129 35.615,30.001 C34.520,31.868 32.097,32.505 30.204,31.424 C29.968,31.289 29.602,31.013 29.142,30.628 C29.112,30.628 29.082,30.628 29.050,30.624 C27.519,30.217 25.918,30.399 24.554,31.144 C23.206,31.876 22.247,33.072 21.852,34.507 C21.842,34.534 21.829,34.551 21.821,34.572 C21.951,35.258 22.030,35.788 22.030,36.091 C22.030,38.247 20.260,39.998 18.073,39.998 C15.881,39.998 14.118,38.247 14.118,36.091 C14.118,34.617 15.966,27.631 17.136,23.362 C17.151,22.990 16.983,22.630 16.648,22.435 C16.315,22.243 15.907,22.279 15.589,22.485 C12.434,25.616 7.236,30.686 5.943,31.424 C4.044,32.505 1.619,31.868 0.531,29.997 C-0.562,28.129 0.087,25.738 1.984,24.659 C2.257,24.502 2.789,24.294 3.495,24.052 C5.788,21.793 5.889,18.226 3.775,16.036 C2.927,15.760 2.291,15.514 1.984,15.338 C0.087,14.260 -0.562,11.865 0.531,10.004 C1.619,8.129 4.044,7.489 5.943,8.566 C7.236,9.305 12.434,14.377 15.589,17.514 C15.907,17.716 16.315,17.755 16.648,17.556 C16.983,17.363 17.151,17.005 17.136,16.635 C17.130,16.624 17.130,16.610 17.130,16.598 C17.069,16.479 17.031,16.347 17.021,16.208 C15.848,11.915 14.118,5.336 14.118,3.911 C14.118,1.750 15.881,0.000 18.073,0.000 C20.260,0.000 22.030,1.750 22.030,3.911 C22.030,4.634 21.578,6.707 20.985,9.123 C20.987,9.139 21.006,9.156 21.011,9.172 C21.304,10.258 21.986,11.168 22.932,11.735 C23.870,12.298 24.961,12.457 25.997,12.178 L26.046,12.178 C27.914,10.408 29.553,8.938 30.204,8.566 C32.097,7.489 34.520,8.129 35.615,10.004 C36.710,11.865 36.058,14.260 34.163,15.338 C33.665,15.625 32.292,16.082 30.554,16.613 C29.026,18.627 28.934,21.345 30.325,23.316 C32.172,23.870 33.643,24.361 34.163,24.659 ZM8.790,17.534 C7.718,17.235 6.672,16.935 5.728,16.654 C6.846,18.728 6.773,21.296 5.539,23.398 C6.474,23.116 7.525,22.815 8.613,22.510 C9.587,20.965 9.653,19.048 8.790,17.534 ZM14.653,19.112 C13.375,18.783 11.858,18.379 10.319,17.959 C10.759,19.280 10.720,20.734 10.203,22.072 C11.776,21.640 13.337,21.226 14.653,20.880 C14.992,20.713 15.224,20.382 15.224,19.997 C15.224,19.612 14.992,19.284 14.653,19.112 ZM21.381,32.530 C21.991,31.512 22.867,30.664 23.964,30.073 C25.063,29.472 26.283,29.186 27.525,29.200 C26.346,28.125 24.953,26.792 23.609,25.480 C22.841,25.323 22.064,25.421 21.389,25.792 C20.767,26.129 20.318,26.652 20.068,27.285 C20.546,29.091 21.014,30.959 21.381,32.530 ZM19.633,25.651 C19.959,25.282 20.343,24.967 20.798,24.720 C21.276,24.463 21.793,24.297 22.321,24.224 C21.693,23.607 21.098,23.021 20.556,22.485 C20.241,22.279 19.834,22.243 19.497,22.435 C19.164,22.630 18.994,22.990 19.011,23.362 C19.199,24.064 19.414,24.848 19.633,25.651 ZM19.127,16.208 C19.112,16.347 19.076,16.479 19.015,16.598 C19.015,16.610 19.015,16.618 19.011,16.631 C18.994,17.005 19.164,17.363 19.497,17.556 C19.834,17.750 20.241,17.716 20.556,17.514 C21.098,16.980 21.698,16.383 22.334,15.765 C21.798,15.683 21.285,15.510 20.810,15.216 C20.365,14.956 19.986,14.609 19.667,14.210 C19.483,14.913 19.298,15.581 19.127,16.208 ZM22.297,12.779 C21.565,12.339 20.955,11.742 20.503,11.026 C20.380,11.513 20.252,12.001 20.127,12.489 C20.356,13.200 20.816,13.800 21.449,14.175 C22.116,14.576 22.889,14.689 23.626,14.497 C23.968,14.169 24.311,13.838 24.650,13.505 C23.834,13.454 23.030,13.210 22.297,12.779 ZM21.490,19.112 C21.156,19.284 20.926,19.612 20.926,19.997 C20.926,20.382 21.156,20.713 21.490,20.880 C23.565,21.424 26.262,22.142 28.649,22.831 C27.876,21.027 27.935,18.949 28.808,17.130 C26.383,17.824 23.614,18.561 21.490,19.112 ZM42.394,33.054 C42.647,33.054 42.712,32.933 42.825,32.933 C42.907,32.933 42.964,32.986 42.964,33.082 C42.964,33.214 42.765,33.360 42.394,33.360 C41.736,33.360 41.418,32.833 41.418,32.266 C41.418,31.701 41.736,31.175 42.394,31.175 C42.760,31.175 42.976,31.299 42.976,31.443 C42.976,31.517 42.915,31.592 42.830,31.592 C42.691,31.592 42.638,31.479 42.394,31.479 C41.951,31.479 41.776,31.906 41.776,32.266 C41.776,32.628 41.951,33.054 42.394,33.054 ZM42.199,37.872 C42.459,37.872 42.618,37.728 42.618,37.583 C42.618,37.166 41.463,37.190 41.463,36.595 C41.463,36.202 41.837,35.993 42.199,35.993 C42.496,35.993 42.919,36.149 42.919,36.371 C42.919,36.447 42.866,36.514 42.756,36.514 C42.602,36.514 42.541,36.299 42.199,36.299 C41.996,36.299 41.821,36.387 41.821,36.567 C41.821,36.941 42.976,36.901 42.976,37.519 C42.976,37.965 42.590,38.178 42.187,38.178 C41.732,38.178 41.374,37.953 41.374,37.772 C41.374,37.676 41.443,37.611 41.520,37.611 C41.679,37.611 41.809,37.872 42.199,37.872 ZM44.379,33.360 C43.769,33.360 43.427,32.833 43.427,32.266 C43.427,31.701 43.769,31.175 44.379,31.175 C44.989,31.175 45.330,31.701 45.330,32.266 C45.330,32.833 44.989,33.360 44.379,33.360 ZM44.379,31.479 C43.940,31.479 43.785,31.906 43.785,32.266 C43.785,32.628 43.940,33.054 44.379,33.054 C44.818,33.054 44.972,32.628 44.972,32.266 C44.972,31.906 44.818,31.479 44.379,31.479 ZM43.517,35.993 C43.606,35.993 43.671,36.049 43.695,36.126 L44.192,37.591 L44.200,37.591 L44.688,36.126 C44.712,36.049 44.769,35.993 44.859,35.993 C44.940,35.993 45.021,36.053 45.021,36.142 C45.021,36.182 45.013,36.218 44.972,36.338 L44.070,38.889 C44.041,38.965 43.984,39.021 43.895,39.021 C43.813,39.021 43.732,38.960 43.732,38.872 C43.732,38.833 43.740,38.796 43.785,38.676 L44.013,38.078 L43.403,36.338 C43.362,36.218 43.354,36.182 43.354,36.142 C43.354,36.053 43.435,35.993 43.517,35.993 ZM46.217,37.872 C46.477,37.872 46.635,37.728 46.635,37.583 C46.635,37.166 45.481,37.190 45.481,36.595 C45.481,36.202 45.855,35.993 46.217,35.993 C46.514,35.993 46.937,36.149 46.937,36.371 C46.937,36.447 46.884,36.514 46.774,36.514 C46.619,36.514 46.558,36.299 46.217,36.299 C46.014,36.299 45.838,36.387 45.838,36.567 C45.838,36.941 46.993,36.901 46.993,37.519 C46.993,37.965 46.607,38.178 46.205,38.178 C45.749,38.178 45.391,37.953 45.391,37.772 C45.391,37.676 45.460,37.611 45.538,37.611 C45.696,37.611 45.826,37.872 46.217,37.872 ZM47.506,36.018 L47.652,36.018 L47.652,35.556 C47.652,35.439 47.721,35.366 47.831,35.366 C47.941,35.366 48.010,35.439 48.010,35.556 L48.010,36.018 L48.156,36.018 C48.274,36.018 48.335,36.073 48.335,36.169 C48.335,36.266 48.274,36.323 48.156,36.323 L48.010,36.323 L48.010,37.990 C48.010,38.106 47.941,38.178 47.831,38.178 C47.721,38.178 47.652,38.106 47.652,37.990 L47.652,36.323 L47.506,36.323 C47.388,36.323 47.327,36.266 47.327,36.169 C47.327,36.073 47.388,36.018 47.506,36.018 ZM48.091,31.351 C48.091,31.256 48.152,31.198 48.270,31.198 L48.417,31.198 L48.417,30.737 C48.417,30.621 48.486,30.548 48.596,30.548 C48.705,30.548 48.775,30.621 48.775,30.737 L48.775,31.198 L48.921,31.198 C49.039,31.198 49.100,31.256 49.100,31.351 C49.100,31.448 49.039,31.503 48.921,31.503 L48.775,31.503 L48.775,33.170 C48.775,33.287 48.705,33.360 48.596,33.360 C48.486,33.360 48.417,33.287 48.417,33.170 L48.417,31.503 L48.270,31.503 C48.152,31.503 48.091,31.448 48.091,31.351 ZM49.640,35.993 C50.230,35.993 50.572,36.519 50.572,37.033 C50.572,37.157 50.527,37.223 50.373,37.223 L49.027,37.223 C49.027,37.587 49.262,37.872 49.665,37.872 C50.141,37.872 50.263,37.583 50.397,37.583 C50.462,37.583 50.527,37.640 50.527,37.741 C50.527,37.912 50.084,38.178 49.661,38.178 C48.970,38.178 48.669,37.652 48.669,37.086 C48.669,36.507 49.035,35.993 49.640,35.993 ZM50.214,36.957 C50.214,36.651 50.035,36.306 49.640,36.299 C49.197,36.290 49.039,36.632 49.027,36.957 L50.214,36.957 ZM49.433,32.266 C49.433,31.688 49.799,31.175 50.405,31.175 C50.995,31.175 51.336,31.701 51.336,32.215 C51.336,32.339 51.292,32.403 51.137,32.403 L49.791,32.403 C49.791,32.769 50.027,33.054 50.430,33.054 C50.905,33.054 51.027,32.765 51.162,32.765 C51.227,32.765 51.292,32.821 51.292,32.922 C51.292,33.094 50.848,33.360 50.426,33.360 C49.734,33.360 49.433,32.833 49.433,32.266 ZM50.979,32.138 C50.979,31.833 50.800,31.488 50.405,31.479 C49.962,31.472 49.803,31.814 49.791,32.138 L50.979,32.138 ZM52.060,33.360 C51.950,33.360 51.881,33.287 51.881,33.170 L51.881,31.364 C51.881,31.247 51.950,31.175 52.060,31.175 C52.170,31.175 52.239,31.247 52.239,31.364 L52.239,31.448 L52.247,31.455 C52.406,31.256 52.629,31.175 52.845,31.175 C53.178,31.175 53.597,31.384 53.597,31.986 L53.597,33.170 C53.597,33.287 53.528,33.360 53.418,33.360 C53.308,33.360 53.240,33.287 53.240,33.170 L53.240,32.006 C53.240,31.632 52.975,31.479 52.739,31.479 C52.503,31.479 52.239,31.632 52.239,32.006 L52.239,33.170 C52.239,33.287 52.170,33.360 52.060,33.360 ZM51.295,35.993 C51.405,35.993 51.474,36.065 51.474,36.182 L51.474,36.246 L51.482,36.254 C51.568,36.146 51.702,35.993 52.028,35.993 C52.239,35.993 52.459,36.081 52.621,36.355 C52.780,36.129 52.971,35.993 53.284,35.993 C53.618,35.993 54.037,36.202 54.037,36.804 L54.037,37.990 C54.037,38.106 53.967,38.178 53.858,38.178 C53.748,38.178 53.679,38.106 53.679,37.990 L53.679,36.792 C53.679,36.487 53.508,36.299 53.215,36.299 C52.926,36.299 52.755,36.487 52.755,36.792 L52.755,37.990 C52.755,38.106 52.686,38.178 52.577,38.178 C52.467,38.178 52.398,38.106 52.398,37.990 L52.398,36.792 C52.398,36.487 52.227,36.299 51.934,36.299 C51.645,36.299 51.474,36.487 51.474,36.792 L51.474,37.990 C51.474,38.106 51.405,38.178 51.295,38.178 C51.186,38.178 51.117,38.106 51.117,37.990 L51.117,36.182 C51.117,36.065 51.186,35.993 51.295,35.993 ZM54.240,31.198 L54.386,31.198 L54.386,30.737 C54.386,30.621 54.455,30.548 54.565,30.548 C54.675,30.548 54.744,30.621 54.744,30.737 L54.744,31.198 L54.890,31.198 C55.008,31.198 55.069,31.256 55.069,31.351 C55.069,31.448 55.008,31.503 54.890,31.503 L54.744,31.503 L54.744,33.170 C54.744,33.287 54.675,33.360 54.565,33.360 C54.455,33.360 54.386,33.287 54.386,33.170 L54.386,31.503 L54.240,31.503 C54.122,31.503 54.061,31.448 54.061,31.351 C54.061,31.256 54.122,31.198 54.240,31.198 ZM61.571,32.014 L61.620,32.014 L61.620,31.749 C61.620,31.568 61.470,31.479 61.238,31.479 C60.896,31.479 60.835,31.697 60.681,31.697 C60.571,31.697 60.518,31.628 60.518,31.552 C60.518,31.331 60.941,31.175 61.238,31.175 C61.710,31.175 61.974,31.384 61.974,31.777 L61.974,33.170 C61.974,33.287 61.905,33.360 61.795,33.360 C61.685,33.360 61.616,33.287 61.616,33.170 L61.616,33.086 L61.608,33.078 C61.450,33.279 61.226,33.360 61.010,33.360 C60.620,33.360 60.262,33.170 60.262,32.732 C60.262,32.067 61.018,32.014 61.571,32.014 ZM61.075,33.054 C61.380,33.054 61.620,32.861 61.620,32.488 L61.620,32.287 L61.543,32.287 C61.087,32.287 60.620,32.287 60.620,32.732 C60.620,32.966 60.839,33.054 61.075,33.054 ZM66.264,32.014 L66.313,32.014 L66.313,31.749 C66.313,31.568 66.163,31.479 65.931,31.479 C65.589,31.479 65.528,31.697 65.373,31.697 C65.264,31.697 65.211,31.628 65.211,31.552 C65.211,31.331 65.634,31.175 65.931,31.175 C66.402,31.175 66.667,31.384 66.667,31.777 L66.667,33.170 C66.667,33.287 66.597,33.360 66.488,33.360 C66.378,33.360 66.309,33.287 66.309,33.170 L66.309,33.086 L66.300,33.078 C66.142,33.279 65.918,33.360 65.703,33.360 C65.313,33.360 64.955,33.170 64.955,32.732 C64.955,32.067 65.711,32.014 66.264,32.014 ZM65.768,33.054 C66.073,33.054 66.313,32.861 66.313,32.488 L66.313,32.287 L66.236,32.287 C65.780,32.287 65.313,32.287 65.313,32.732 C65.313,32.966 65.532,33.054 65.768,33.054 ZM68.749,33.054 C68.639,33.238 68.444,33.360 68.200,33.360 C67.590,33.360 67.248,32.833 67.248,32.266 C67.248,31.701 67.590,31.175 68.200,31.175 C68.431,31.175 68.655,31.315 68.749,31.443 L68.757,31.443 L68.757,31.347 C68.757,31.223 68.850,31.175 68.948,31.175 C69.017,31.175 69.115,31.223 69.115,31.347 L69.115,33.182 C69.115,33.817 68.724,34.202 68.139,34.202 C67.769,34.202 67.309,33.994 67.309,33.812 C67.309,33.741 67.346,33.649 67.460,33.649 C67.622,33.649 67.781,33.897 68.167,33.897 C68.623,33.897 68.757,33.544 68.757,33.238 L68.757,33.054 L68.749,33.054 ZM68.793,32.266 C68.793,31.906 68.639,31.479 68.200,31.479 C67.760,31.479 67.606,31.906 67.606,32.266 C67.606,32.628 67.760,33.054 68.200,33.054 C68.639,33.054 68.793,32.628 68.793,32.266 ZM70.648,31.175 C71.237,31.175 71.579,31.701 71.579,32.215 C71.579,32.339 71.534,32.403 71.380,32.403 L70.033,32.403 C70.033,32.769 70.269,33.054 70.672,33.054 C71.148,33.054 71.270,32.765 71.404,32.765 C71.469,32.765 71.534,32.821 71.534,32.922 C71.534,33.094 71.091,33.360 70.668,33.360 C69.977,33.360 69.676,32.833 69.676,32.266 C69.676,31.688 70.042,31.175 70.648,31.175 ZM71.221,32.138 C71.221,31.833 71.042,31.488 70.648,31.479 C70.204,31.472 70.046,31.814 70.033,32.138 L71.221,32.138 Z"/>
</svg>